<svg xmlns="http://www.w3.org/2000/svg" viewBox="0 0 600 600" role="img" aria-label="Network nodes">
  <g stroke="#2f7de1" stroke-opacity="0.3" stroke-width="1.4">
    <line x1="80" y1="120" x2="240" y2="80"/>
    <line x1="240" y1="80" x2="420" y2="160"/>
    <line x1="420" y1="160" x2="520" y2="320"/>
    <line x1="80" y1="120" x2="160" y2="300"/>
    <line x1="160" y1="300" x2="320" y2="360"/>
    <line x1="320" y1="360" x2="520" y2="320"/>
    <line x1="160" y1="300" x2="260" y2="500"/>
    <line x1="320" y1="360" x2="440" y2="500"/>
    <line x1="240" y1="80" x2="160" y2="300"/>
  </g>
  <g fill="#1e5aa8">
    <circle cx="80" cy="120" r="6"/>
    <circle cx="240" cy="80" r="7" fill="#d4af37"/>
    <circle cx="420" cy="160" r="6"/>
    <circle cx="520" cy="320" r="7" fill="#d4af37"/>
    <circle cx="160" cy="300" r="6"/>
    <circle cx="320" cy="360" r="8" fill="#2f7de1"/>
    <circle cx="260" cy="500" r="6"/>
    <circle cx="440" cy="500" r="6" fill="#d4af37"/>
  </g>
</svg>
